<svg xmlns="http://www.w3.org/2000/svg" width="37.35" height="35" viewBox="0 0 37.35 35">
    <defs>
        <style>
            .cls-8{fill:#7d8eb0}
        </style>
    </defs>
    <g id="cement" transform="translate(0 -0.499)">
        <path id="Path_597" fill="#eab875" d="M178.452 59.836c-.1-.06-.209-.117-.313-.17 3.554-5.136 3.34-19.523-.18-24.783q.246-.118.493-.26c1.767-1.018 2.157-2.173 1.66-3.034s-1.691-1.1-3.458-.085a6.787 6.787 0 0 0-1.554 1.209c-3.854-1.413-11.008-1.413-14.863 0a6.8 6.8 0 0 0-1.554-1.209c-1.767-1.018-2.962-.776-3.458.085s-.106 2.016 1.661 3.034c.164.095.329.182.493.26-3.52 5.259-3.734 19.647-.18 24.783-.1.054-.209.11-.313.17-1.767 1.018-2.157 2.173-1.661 3.034s1.691 1.1 3.458.085a6.827 6.827 0 0 0 1.51-1.163 28.069 28.069 0 0 0 14.95 0 6.834 6.834 0 0 0 1.51 1.163c1.767 1.018 2.962.776 3.458-.085s.106-2.016-1.66-3.034zm0 0" transform="translate(-143.354 -28.123)"/>
        <path id="Path_598" fill="#c68d4e" d="M450.181 59.844c-.1-.06-.209-.117-.313-.17 3.554-5.136 3.34-19.523-.18-24.783q.246-.118.493-.26c1.767-1.018 2.157-2.173 1.66-3.034-.4-.692-1.249-.983-2.484-.543a1.44 1.44 0 0 1 .542.543c.5.861.106 2.016-1.66 3.034-.164.095-.329.182-.493.26 3.52 5.259 3.734 19.647.18 24.783.1.054.209.11.313.17 1.767 1.018 2.157 2.173 1.66 3.034a1.44 1.44 0 0 1-.542.543c1.235.441 2.086.149 2.484-.543.497-.861.107-2.016-1.66-3.034zm0 0" transform="translate(-415.084 -28.131)"/>
        <path id="Path_599" fill="#ea6789" d="M65.862 72.844l5.515 15.151-3.07 1.117-5.514-15.151a4.548 4.548 0 0 0 3.07-1.117zm0 0" transform="translate(-58.212 -67.067)"/>
        <path id="Path_600" fill="#c7416a" d="M92.732 88l-5.515-15.156a4.515 4.515 0 0 1-1.389.828l5.412 14.866-1.577.574zm0 0" transform="translate(-79.567 -67.067)"/>
        <path id="Path_601" fill="#1b223a" d="M6.438 7.442h-.1a5.11 5.11 0 0 1-4.25-2.463 1.272 1.272 0 0 1 .657-1.849L9.758.576a1.273 1.273 0 0 1 1.692.994 5.11 5.11 0 0 1-1.673 4.619 5.1 5.1 0 0 1-3.339 1.253zM10.132 1.6L3.118 4.157a.179.179 0 0 0-.093.259 4.008 4.008 0 0 0 3.334 1.931 3.981 3.981 0 0 0 4.011-4.6.178.178 0 0 0-.237-.138zm0 0" transform="translate(-1.767 0)"/>
        <path id="Path_602" fill="#f0f2dc" d="M240.285 153.958v3.3a2.032 2.032 0 0 0 2.032 2.033h9.508a2.033 2.033 0 0 0 2.033-2.033v-3.3a2.033 2.033 0 0 0-2.033-2.033h-9.508a2.033 2.033 0 0 0-2.032 2.033zm0 0" transform="translate(-222.757 -140.38)"/>
        <path id="Path_603" fill="#aabfd5" d="M24.636 268.222a5.883 5.883 0 0 0-4.732-5.769 7.039 7.039 0 1 0-13.847 2.053 3.856 3.856 0 0 0-2.835 3.716H2.153A2.153 2.153 0 0 0 0 270.375v1.452a.249.249 0 0 0 .249.249H28a.249.249 0 0 0 .249-.249v-1.452a2.153 2.153 0 0 0-2.153-2.153zm0 0" transform="translate(0 -236.577)"/>
        <g id="Group_430" transform="translate(7.117 19.115)">
            <path id="Path_604" d="M177.691 268.222h-1.46a5.883 5.883 0 0 0-4.732-5.769 7.021 7.021 0 0 0-7.975-6.7 7.042 7.042 0 0 1 6.069 6.7 5.883 5.883 0 0 1 4.731 5.769h1.46a2.153 2.153 0 0 1 2.153 2.153v1.452a.249.249 0 0 1-.249.249h1.906a.249.249 0 0 0 .249-.249v-1.452a2.153 2.153 0 0 0-2.152-2.153zm0 0" class="cls-8" transform="translate(-158.712 -255.692)"/>
            <path id="Path_605" d="M229.643 383.068a.547.547 0 0 1-.547-.547 1.43 1.43 0 0 0-2.229-1.186.547.547 0 0 1-.613-.907 2.525 2.525 0 0 1 3.936 2.093.547.547 0 0 1-.547.547zm0 0" class="cls-8" transform="translate(-216.643 -370.928)"/>
            <path id="Path_606" d="M98.1 403.932a.547.547 0 0 1-.436-.877 2.383 2.383 0 0 1 3.478-.347.547.547 0 1 1-.725.819 1.288 1.288 0 0 0-1.881.188.547.547 0 0 1-.437.217zm0 0" class="cls-8" transform="translate(-97.557 -391.429)"/>
            <path id="Path_607" d="M142.781 309.559a.547.547 0 0 1-.5-.773 2.267 2.267 0 0 1 3.731-.6.547.547 0 0 1-.8.741 1.173 1.173 0 0 0-1.929.309.547.547 0 0 1-.502.323zm0 0" class="cls-8" transform="translate(-138.975 -303.682)"/>
        </g>
    </g>
</svg>
