<svg xmlns="http://www.w3.org/2000/svg" width="36.473" height="35" viewBox="0 0 36.473 35">
    <defs>
        <style>
            .cls-1{fill:#274d59}.cls-2{fill:#1b3c44}.cls-4{fill:#d36c4f}.cls-5{fill:#c1573e}.cls-6{fill:#f9ad6a}.cls-7{fill:#ea8c46}
        </style>
    </defs>
    <g id="hammering" transform="translate(0 -0.5)">
        <path id="Path_626" d="M113.473 226.828l2.248 1.5v9.415l.935.866.935-.866v-9.415l2.248-1.5zm0 0" class="cls-1" transform="translate(-104.554 -208.537)"/>
        <path id="Path_627" d="M142.043 276.973l.935.866.935-.866v-7.563h-1.866zm0 0" class="cls-2" transform="translate(-130.878 -247.773)"/>
        <path id="Path_628" fill="#17293d" d="M132.378 239.405v.55h.933v-1.1h-1.76zm0 0" transform="translate(-121.21 -219.619)"/>
        <path id="Path_629" d="M.012 284.207h36.471v12.7H.012zm0 0" class="cls-4" transform="translate(-0.011 -261.406)"/>
        <g id="Group_435" transform="translate(0 22.8)">
            <path id="Path_630" d="M429.164 284.207h2.736v12.7h-2.737zm0 0" class="cls-5" transform="translate(-395.43 -284.207)"/>
            <path id="Path_631" d="M74.953 284.719a18.032 18.032 0 0 1 3.667 1.94 8.608 8.608 0 0 0 5.017 1.85 9.53 9.53 0 0 0 1.639-.151 19.422 19.422 0 0 0 5.678-2.1 10.135 10.135 0 0 1 4.533-1.5v-.55h-2.724a24.253 24.253 0 0 0-2.307 1.071 18.253 18.253 0 0 1-5.369 2c-2.736.477-4.052-.369-5.871-1.54a22.654 22.654 0 0 0-2.657-1.531h-1.416zm0 0" class="cls-5" transform="translate(-69.061 -284.203)"/>
            <path id="Path_632" d="M0 306.787l.029.549c2.271-.118 4.273.928 6.393 2.037a16.83 16.83 0 0 0 7.139 2.418q.241.011.481.011c2.992 0 5.963-1.252 8.6-2.362a18.63 18.63 0 0 1 5.658-1.773 12.4 12.4 0 0 1 5.056 1.091 9.269 9.269 0 0 0 3.115.807v-1.1a8.609 8.609 0 0 1-2.727-.737 13.363 13.363 0 0 0-5.493-1.16 19.254 19.254 0 0 0-6.037 1.858c-2.8 1.18-5.7 2.4-8.6 2.266a15.955 15.955 0 0 1-6.68-2.3c-2.246-1.174-4.367-2.277-6.931-2.16zm0 0" class="cls-5" transform="translate(0 -304.495)"/>
            <path id="Path_633" d="M36.473 399.517l-.094-.542a52.3 52.3 0 0 1-15.035.111c-7.823-1.3-14.134-1.708-21.343.282v.569l.148.53c7.106-1.991 13.086-1.616 21.013-.295a42.517 42.517 0 0 0 6.9.523 57.338 57.338 0 0 0 8.408-.62zm0 0" class="cls-5" transform="translate(-0.001 -389.047)"/>
            <path id="Path_634" d="M144.891 284.614a10.338 10.338 0 0 0 3.749 2l.286-1.063a9.819 9.819 0 0 1-2.789-1.347h-.88zm0 0" class="cls-5" transform="translate(-133.502 -284.203)"/>
            <path id="Path_635" d="M238.055 379.934c-5.227 1.385-18.876.06-19.013.047l-.108 1.095c.368.036 6.116.6 11.6.6a34.959 34.959 0 0 0 7.666-.638v-.566zm0 0" class="cls-5" transform="translate(-201.724 -372.409)"/>
            <path id="Path_636" d="M8.089 346.07l.049-1.1c-2.444-.109-5.536-.479-7.78-2.395l-.358.418v.7c2.452 1.884 5.592 2.262 8.09 2.373zm0 0" class="cls-5" transform="translate(0 -337.986)"/>
            <path id="Path_637" d="M298.055 347.05l.246 1.073c2.62-.6 6.4-1.221 8.952.329l.571-.941c-2.9-1.758-6.962-1.1-9.769-.461zm0 0" class="cls-5" transform="translate(-274.626 -341.491)"/>
        </g>
        <path id="Path_638" d="M159.58 1.428l-3.629 3.629v1.1h-1.1l-2.191 2.191L156.307 12l2.193-2.2V8.7h1.1l3.628-3.629a1.709 1.709 0 0 1 2.416 0l.458.458 1.031-1.029-1.666-1.666-1.407-1.406a3.167 3.167 0 0 0-4.48 0zm0 0" class="cls-1" transform="translate(-140.66 0)"/>
        <path id="Path_639" d="M198.624 35.379l.409.407L198 36.817l-.458-.458a1.709 1.709 0 0 0-2.416 0l-3.626 3.629h-1.1v1.1l-2.2 2.191.853.853 2.195-2.194v-1.1h1.1l3.629-3.629a1.709 1.709 0 0 1 2.416 0l.458.458 1.031-1.031zm0 0" class="cls-2" transform="translate(-173.41 -32.137)"/>
        <path id="Path_640" d="M185.415 63.3h-.778l1.931 1.931.778-.778-1.931-1.931zm0 0" class="cls-2" transform="translate(-170.123 -57.148)"/>
        <path id="Path_641" d="M192.969 7.2l2.231-2.227 1.049 1.049-2.231 2.231zm0 0" class="cls-6" transform="translate(-177.801 -4.121)"/>
        <path id="Path_642" d="M200.25 14.485l2.231-2.231.476.476-2.231 2.231zm0 0" class="cls-7" transform="translate(-184.51 -10.83)"/>
        <path id="Path_643" d="M252.7 66.934l9.23 9.23a4.256 4.256 0 0 1 .934 1.409l.395.975a1.94 1.94 0 0 0 3.018.806c.026-.022.651-.644 1.125-1.117a.748.748 0 0 0 0-1.059l-2.633-2.633-9.843-9.845zm0 0" class="cls-6" transform="translate(-232.832 -59.157)"/>
        <path id="Path_644" d="M252.7 66.93l2.231-2.231.809.81-2.24 2.231zm0 0" class="cls-7" transform="translate(-232.832 -59.153)"/>
        <path id="Path_645" d="M367.216 182.509a1.94 1.94 0 0 0 3.018.806c.026-.022.651-.644 1.125-1.117a.748.748 0 0 0 0-1.059l-2.633-2.633-.967-.97-2.233 2.232.359.359a4.256 4.256 0 0 1 .934 1.409zm0 0" class="cls-4" transform="translate(-336.796 -163.12)"/>
        <path id="Path_646" d="M391.679 189.484l-2.633-2.633-.258-.258 1.933 1.933a.748.748 0 0 1 0 1.059c-.474.472-1.1 1.095-1.125 1.117a1.866 1.866 0 0 1-2.019.244 1.935 1.935 0 0 0 2.976.714c.026-.022.65-.644 1.125-1.117a.748.748 0 0 0 0-1.06zm0 0" class="cls-5" transform="translate(-357.113 -171.466)"/>
    </g>
</svg>
